<?xml version="1.0" encoding="UTF-8"?>
<svg version="1.1" xmlns="http://www.w3.org/2000/svg" width="250" height="269">
<path d="M0 0 C1.19375244 0.71917603 1.19375244 0.71917603 2.41162109 1.45288086 C3.33072266 1.99879883 4.24982422 2.5447168 5.19677734 3.10717773 C6.18291016 3.7046582 7.16904297 4.30213867 8.18505859 4.91772461 C10.34310188 6.20164062 12.50199075 7.48413618 14.66162109 8.76538086 C15.78987305 9.43714355 16.918125 10.10890625 18.08056641 10.80102539 C23.28016785 13.88258883 28.53699632 16.86393 33.79174805 19.85009766 C44.09029278 25.70390253 54.34909128 31.6228492 64.57202148 37.60791016 C69.97005539 40.76655135 75.37719392 43.90834446 80.79833984 47.02709961 C81.40127869 47.37409409 82.00421753 47.72108856 82.62542725 48.07859802 C85.56542629 49.77011552 88.50659033 51.45954115 91.44921875 53.14648438 C92.49513184 53.74775146 93.54104492 54.34901855 94.61865234 54.96850586 C96.01555298 55.76961792 96.01555298 55.76961792 97.44067383 56.58691406 C99.56005859 57.85522461 99.56005859 57.85522461 100.56005859 58.85522461 C104.88027392 94.84865977 104.88027392 94.84865977 98.58984375 105.05053711 C93.5763441 109.65347785 87.69039497 111.91896701 81.265625 113.9362793 C77.5571568 115.19586008 74.74218345 117.05081621 71.49755859 119.23022461 C67.24462073 121.92908142 67.24462073 121.92908142 64.27001953 121.6081543 C61.12294735 120.73377857 58.68662793 119.42503375 55.86083984 117.78491211 C54.74660645 117.14295898 53.63237305 116.50100586 52.484375 115.83959961 C51.28036756 115.13659215 50.07643048 114.43346417 48.87255859 113.73022461 C47.62473085 113.00821004 46.37651539 112.28686515 45.12792969 111.56616211 C42.54891973 110.07608396 39.97223881 108.58209561 37.39746094 107.0847168 C33.74428708 104.96067936 30.08501589 102.84737662 26.42333984 100.73803711 C22.15719293 98.28023705 17.89279426 95.81947612 13.63037109 93.35522461 C6.95330674 89.4990474 0.25745889 85.67593083 -6.43994141 81.85522461 C-9.30915439 102.86087328 -9.30915439 102.86087328 -4.32507324 122.5925293 C2.52882355 130.19422615 13.89086579 133.66998988 23.37207031 136.77661133 C26.41617459 138.1443749 27.71785389 139.04074521 29.56005859 141.85522461 C31.03443859 147.75574129 30.85224154 153.88293996 30.73339844 159.92260742 C30.68514926 162.84972389 30.73293776 165.76443002 30.79052734 168.69116211 C30.83978329 182.06339754 30.83978329 182.06339754 27.7956543 186.32568359 C25.43672867 187.93267436 23.23962343 188.88708708 20.56005859 189.85522461 C19.03546049 190.69822624 17.52328399 191.56411566 16.02490234 192.45288086 C14.51797719 193.27850422 13.00885825 194.10013627 11.49755859 194.91772461 C9.98465111 195.73975932 8.47292285 196.56396817 6.96240234 197.39038086 C6.30747803 197.74495361 5.65255371 198.09952637 4.9777832 198.46484375 C3.78100952 199.15308228 3.78100952 199.15308228 2.56005859 199.85522461 C1.88954971 200.16616562 1.21904083 200.47710663 0.5282135 200.79747009 C-3.74156819 202.92421999 -3.74156819 202.92421999 -6.11485291 206.84288025 C-6.31397253 209.29921126 -6.26111302 211.64080736 -6.12353516 214.10131836 C-6.10203958 215.92618802 -6.08055556 217.75105782 -6.05908203 219.57592773 C-5.97579584 222.43787717 -5.87721726 225.29888983 -5.77319336 228.16015625 C-5.27222487 244.11291454 -5.27222487 244.11291454 -8.0246582 248.21972656 C-10.42033892 249.85680691 -12.73171892 250.81643814 -15.43994141 251.85522461 C-17.54585128 253.03595594 -19.6376577 254.24207505 -21.71728516 255.46850586 C-23.93523175 256.70536194 -26.15532055 257.93838375 -28.37744141 259.16772461 C-29.51246094 259.80000977 -30.64748047 260.43229492 -31.81689453 261.08374023 C-39.97937593 265.62494187 -39.97937593 265.62494187 -42.43994141 266.85522461 C-44.78735352 265.79467773 -44.78735352 265.79467773 -47.71728516 264.13647461 C-49.32506836 263.23155273 -49.32506836 263.23155273 -50.96533203 262.30834961 C-52.09132813 261.66381836 -53.21732422 261.01928711 -54.37744141 260.35522461 C-56.01422852 259.43483398 -56.01422852 259.43483398 -57.68408203 258.49584961 C-63.73691685 255.06795029 -63.73691685 255.06795029 -65.51677132 253.97781467 C-67.02177519 253.09931599 -68.57491936 252.30319078 -70.1420269 251.54097652 C-77.81631797 247.4414442 -77.81631797 247.4414442 -79.45685291 243.26865578 C-79.83574034 240.0877122 -79.86720283 237.06386917 -79.78051758 233.86132812 C-79.79187744 232.67037033 -79.8032373 231.47941254 -79.81494141 230.25236511 C-79.8352774 227.00318387 -79.80722327 223.75883785 -79.75720382 220.51011777 C-79.71642614 217.10943439 -79.73809725 213.70914737 -79.75300598 210.30833435 C-79.77178473 203.87640538 -79.73480018 197.44606722 -79.67753345 191.01441473 C-79.61504253 183.68905433 -79.61508807 176.36410593 -79.62025869 169.03852952 C-79.62949527 153.97685733 -79.56061445 138.91645852 -79.43994141 123.85522461 C-82.85532225 125.7548379 -86.26914556 127.65721902 -89.68164062 129.56201172 C-91.40367032 130.52249399 -93.12687184 131.48087435 -94.85009766 132.43920898 C-99.66849829 135.13018711 -104.44109472 137.81310638 -109.05552673 140.8430481 C-112.43994141 142.85522461 -112.43994141 142.85522461 -115.59057617 142.36254883 C-116.5308667 141.86513184 -117.47115723 141.36771484 -118.43994141 140.85522461 C-119.35509521 140.37714355 -120.27024902 139.8990625 -121.21313477 139.40649414 C-122.14262939 138.85590332 -123.07212402 138.3053125 -124.02978516 137.73803711 C-125.57762695 136.82731445 -125.57762695 136.82731445 -127.15673828 135.89819336 C-128.21957031 135.26526367 -129.28240234 134.63233398 -130.37744141 133.98022461 C-132.49061303 132.73264307 -134.60389155 131.48524257 -136.71728516 130.23803711 C-137.64790771 129.68519043 -138.57853027 129.13234375 -139.53735352 128.56274414 C-142.82116711 126.63095911 -146.13203472 124.745457 -149.43994141 122.85522461 C-149.43994141 108.33522461 -149.43994141 93.81522461 -149.43994141 78.85522461 C-143.49994141 75.55522461 -137.55994141 72.25522461 -131.43994141 68.85522461 C-127.63838954 66.6610734 -123.84571186 64.45906309 -120.06494141 62.23022461 C-111.22372861 57.045066 -102.34570454 51.92833442 -93.43994141 46.85522461 C-83.72221391 41.31782002 -74.0385245 35.72550266 -64.3840332 30.07836914 C-55.93575043 25.13833698 -47.47247988 20.22463204 -38.98339844 15.35498047 C-33.74270603 12.34846129 -28.52225443 9.31695538 -23.34228516 6.20678711 C-21.90888794 5.35721436 -21.90888794 5.35721436 -20.4465332 4.49047852 C-18.66000531 3.43068188 -16.88093773 2.35816565 -15.11108398 1.27075195 C-14.31726318 0.80362793 -13.52344238 0.33650391 -12.70556641 -0.14477539 C-12.02268555 -0.55727539 -11.33980469 -0.96977539 -10.63623047 -1.39477539 C-6.7794679 -2.71180236 -3.59722578 -1.68775182 0 0 Z " fill="#ED8E24" transform="translate(149.43994140625,2.144775390625)"/>
<path d="M0 0 C1.19375244 0.71917603 1.19375244 0.71917603 2.41162109 1.45288086 C3.33072266 1.99879883 4.24982422 2.5447168 5.19677734 3.10717773 C6.18291016 3.7046582 7.16904297 4.30213867 8.18505859 4.91772461 C10.34310188 6.20164062 12.50199075 7.48413618 14.66162109 8.76538086 C15.78987305 9.43714355 16.918125 10.10890625 18.08056641 10.80102539 C23.28016785 13.88258883 28.53699632 16.86393 33.79174805 19.85009766 C44.08943552 25.70341525 54.34634793 31.6235603 64.56982422 37.60571289 C72.38345855 42.17592705 80.21759772 46.70972831 88.06005859 51.23022461 C88.64192932 51.56563263 89.22380005 51.90104065 89.82330322 52.24661255 C93.06842368 54.11695718 96.31402563 55.98646415 99.56005859 57.85522461 C99.56005859 58.84522461 99.56005859 59.83522461 99.56005859 60.85522461 C95.9855431 62.91840381 92.41091298 64.98138425 88.83618164 67.04418945 C87.62293482 67.74433162 86.40971804 68.44452583 85.1965332 69.14477539 C84.6094458 69.4836377 84.0223584 69.8225 83.41748047 70.17163086 C82.54828476 70.67370056 82.54828476 70.67370056 81.66152954 71.18591309 C79.96160177 72.16579773 78.25865755 73.1404434 76.55566406 74.11499023 C74.79763711 75.13627924 73.05083726 76.17824898 71.33398438 77.26733398 C67.13534002 79.91240026 67.13534002 79.91240026 64.20922852 79.62158203 C61.24839378 78.76506556 58.88207028 77.56691937 56.20068359 76.04663086 C55.17644287 75.46977539 54.15220215 74.89291992 53.09692383 74.29858398 C52.0122583 73.67790039 50.92759277 73.0572168 49.81005859 72.41772461 C48.6847876 71.7802832 47.5595166 71.1428418 46.40014648 70.48608398 C40.2400002 66.98689185 34.10194301 63.45080097 27.99755859 59.85522461 C27.35423584 59.47720703 26.71091309 59.09918945 26.0480957 58.7097168 C21.8074424 56.2082512 17.59837046 53.65878245 13.39599609 51.09350586 C11.22167189 49.78465465 9.04719325 48.47605995 6.87255859 47.16772461 C5.84380615 46.5302832 4.81505371 45.8928418 3.75512695 45.23608398 C2.77938721 44.6527832 1.80364746 44.06948242 0.79833984 43.46850586 C-0.06750732 42.94039307 -0.93335449 42.41228027 -1.82543945 41.86816406 C-5.19079244 40.56432154 -6.98581763 40.88872046 -10.43994141 41.85522461 C-13.1476007 43.08196637 -13.1476007 43.08196637 -15.79931641 44.70678711 C-16.81896484 45.30297852 -17.83861328 45.89916992 -18.88916016 46.51342773 C-19.97841797 47.1624707 -21.06767578 47.81151367 -22.18994141 48.48022461 C-23.34691492 49.16024639 -24.50447854 49.83926508 -25.66259766 50.51733398 C-28.06659289 51.92589785 -30.46799914 53.33873102 -32.86767578 54.75463867 C-38.36829075 57.99539471 -43.90600251 61.17183996 -49.43994141 64.35522461 C-51.60416662 65.60364049 -53.76822859 66.85233941 -55.93212891 68.10131836 C-60.29059529 70.61591897 -64.65006332 73.12877122 -69.01025391 75.64038086 C-70.09467773 76.26565674 -71.17910156 76.89093262 -72.29638672 77.53515625 C-74.45834201 78.78036369 -76.62173331 80.02308154 -78.78662109 81.26318359 C-84.30333981 84.43088852 -89.77483834 87.65412797 -95.19775391 90.98022461 C-96.28813965 91.64078857 -97.37852539 92.30135254 -98.50195312 92.98193359 C-100.57905062 94.24317621 -102.64642213 95.52062221 -104.70214844 96.81640625 C-105.63140137 97.37706787 -106.5606543 97.93772949 -107.51806641 98.51538086 C-108.73091309 99.26766968 -108.73091309 99.26766968 -109.96826172 100.03515625 C-113.45232933 101.1911206 -115.12171959 100.32020808 -118.43994141 98.85522461 C-120.49982739 97.78245497 -122.53177024 96.65486625 -124.53759766 95.48413086 C-125.66875 94.82735352 -126.79990234 94.17057617 -127.96533203 93.49389648 C-129.14442586 92.80193694 -130.32346183 92.1098788 -131.50244141 91.41772461 C-132.68509308 90.72907352 -133.86803353 90.0409181 -135.05126953 89.35327148 C-138.18525148 87.52794601 -141.31577053 85.69728762 -144.43994141 83.85522461 C-145.86197876 83.06619751 -145.86197876 83.06619751 -147.31274414 82.26123047 C-148.01471924 81.79724854 -148.71669434 81.3332666 -149.43994141 80.85522461 C-149.43994141 80.19522461 -149.43994141 79.53522461 -149.43994141 78.85522461 C-148.41900391 78.29577148 -147.39806641 77.73631836 -146.34619141 77.15991211 C-136.48892828 71.73345064 -126.73917202 66.14214889 -117.03173828 60.45239258 C-109.198 55.86634047 -101.32724143 51.34817356 -93.43994141 46.85522461 C-83.72221391 41.31782002 -74.0385245 35.72550266 -64.3840332 30.07836914 C-55.93575043 25.13833698 -47.47247988 20.22463204 -38.98339844 15.35498047 C-33.74270603 12.34846129 -28.52225443 9.31695538 -23.34228516 6.20678711 C-21.90888794 5.35721436 -21.90888794 5.35721436 -20.4465332 4.49047852 C-18.66000531 3.43068188 -16.88093773 2.35816565 -15.11108398 1.27075195 C-14.31726318 0.80362793 -13.52344238 0.33650391 -12.70556641 -0.14477539 C-12.02268555 -0.55727539 -11.33980469 -0.96977539 -10.63623047 -1.39477539 C-6.7794679 -2.71180236 -3.59722578 -1.68775182 0 0 Z " fill="#F7BE3B" transform="translate(149.43994140625,2.144775390625)"/>
<path d="M0 0 C0 13.53 0 27.06 0 41 C1.65 41.66 3.3 42.32 5 43 C6.93051057 44.010644 8.84495248 45.05232401 10.74609375 46.1171875 C12.37321289 47.02791016 12.37321289 47.02791016 14.03320312 47.95703125 C15.15662109 48.58996094 16.28003906 49.22289062 17.4375 49.875 C18.55705078 50.50019531 19.67660156 51.12539062 20.83007812 51.76953125 C27.06668776 55.27091565 27.06668776 55.27091565 30 57 C31.09916748 57.5367334 32.19833496 58.0734668 33.33081055 58.62646484 C36.2566757 61.22824487 36.41165825 61.55297725 36.68115234 65.21777344 C36.68020562 66.93193421 36.64648503 68.64628363 36.5859375 70.359375 C36.57744781 71.26375305 36.56895813 72.1681311 36.56021118 73.09991455 C36.52666085 75.98449557 36.45138076 78.86626621 36.375 81.75 C36.34490241 83.70699084 36.31752624 85.66402555 36.29296875 87.62109375 C36.22686431 92.41514302 36.12333286 97.20709531 36 102 C29.23469143 98.31892291 22.48102753 94.61839601 15.75 90.875 C14.99976563 90.45863281 14.24953125 90.04226562 13.4765625 89.61328125 C8.96540984 87.10621209 4.48180829 84.56103331 0 82 C0 109.06 0 136.12 0 164 C-6.75165507 161.74944831 -6.75165507 161.74944831 -9.84765625 159.8984375 C-10.88116211 159.28548828 -10.88116211 159.28548828 -11.93554688 158.66015625 C-12.63744141 158.23605469 -13.33933594 157.81195313 -14.0625 157.375 C-14.73732422 156.97410156 -15.41214844 156.57320312 -16.10742188 156.16015625 C-17.53141544 155.31075658 -18.93772222 154.43106419 -20.32563782 153.52391052 C-23.00721813 151.87769321 -23.00721813 151.87769321 -26.24711609 150.93690491 C-30.40369096 149.25248784 -33.44467334 147.76919383 -36 144 C-38.49258058 135.86024133 -37.89917175 126.8676994 -37.81209469 118.44602513 C-37.79167643 115.7147672 -37.81243568 112.98444577 -37.83320546 110.25323862 C-37.88187152 103.80538517 -37.86496015 97.36004597 -37.8046875 90.91235352 C-37.74363818 84.27885093 -37.78409635 77.65159283 -37.87626529 71.01859003 C-37.9525636 65.30573928 -37.97003302 59.59480226 -37.94004178 53.88152021 C-37.92245962 50.47685347 -37.9254405 47.0756385 -37.98329926 43.67134285 C-38.24241004 23.03015581 -38.24241004 23.03015581 -34.52549171 18.00750542 C-30.50382262 14.4235635 -26.02615544 12.75972719 -21 11 C-19.12410286 9.94947033 -17.26645642 8.86386504 -15.44921875 7.71484375 C-13.86262953 6.78794836 -12.27541359 5.86212471 -10.6875 4.9375 C-9.86572266 4.45345703 -9.04394531 3.96941406 -8.19726562 3.47070312 C-7.41416016 3.01501953 -6.63105469 2.55933594 -5.82421875 2.08984375 C-5.13416748 1.68628662 -4.44411621 1.28272949 -3.7331543 0.86694336 C-2 0 -2 0 0 0 Z " fill="#E55B2C" transform="translate(107,104)"/>
<path d="M0 0 C1.90381834 1.25367678 3.79121151 2.53254717 5.6640625 3.83203125 C7.75093112 5.05281983 9.84757752 6.25703004 11.953125 7.4453125 C14.06605006 8.67676388 16.17802497 9.90984694 18.2890625 11.14453125 C19.37574219 11.77681641 20.46242187 12.40910156 21.58203125 13.06054688 C23.12697266 13.96256836 23.12697266 13.96256836 24.703125 14.8828125 C26.09845459 15.69745972 26.09845459 15.69745972 27.52197266 16.52856445 C29.6640625 17.83203125 29.6640625 17.83203125 30.6640625 18.83203125 C31.05399792 24.72451249 31.14931622 30.61832129 31.23388672 36.5222168 C31.27051341 38.51188909 31.32505134 40.50131649 31.39794922 42.48999023 C31.99129274 58.91904332 31.99129274 58.91904332 28.93481445 63.32446289 C26.56278119 64.93498803 24.36141681 65.87581398 21.6640625 66.83203125 C20.13881844 67.6738636 18.6265883 68.5397439 17.12890625 69.4296875 C15.6219811 70.25531086 14.11286216 71.07694291 12.6015625 71.89453125 C11.08865501 72.71656596 9.57692676 73.54077481 8.06640625 74.3671875 C7.41148193 74.72176025 6.75655762 75.07633301 6.08178711 75.44165039 C5.28393799 75.90047607 4.48608887 76.35930176 3.6640625 76.83203125 C2.99355362 77.14297226 2.32304474 77.45391327 1.63221741 77.77427673 C-2.63756428 79.90102663 -2.63756428 79.90102663 -5.010849 83.81968689 C-5.20996862 86.2760179 -5.15710912 88.617614 -5.01953125 91.078125 C-4.99803568 92.90299466 -4.97655166 94.72786446 -4.95507812 96.55273438 C-4.87179193 99.41468381 -4.77321336 102.27569647 -4.66918945 105.13696289 C-4.16822096 121.08972118 -4.16822096 121.08972118 -6.9206543 125.1965332 C-9.31633501 126.83361355 -11.62771501 127.79324478 -14.3359375 128.83203125 C-16.44184738 130.01276258 -18.5336538 131.21888169 -20.61328125 132.4453125 C-22.83122784 133.68216858 -25.05131664 134.91519039 -27.2734375 136.14453125 C-28.40845703 136.77681641 -29.54347656 137.40910156 -30.71289062 138.06054688 C-38.87537202 142.60174851 -38.87537202 142.60174851 -41.3359375 143.83203125 C-41.3359375 116.44203125 -41.3359375 89.05203125 -41.3359375 60.83203125 C-34.58754934 63.08149397 -34.58754934 63.08149397 -31.453125 64.96875 C-30.75960937 65.38189453 -30.06609375 65.79503906 -29.3515625 66.22070312 C-28.64515625 66.64931641 -27.93875 67.07792969 -27.2109375 67.51953125 C-25.81272198 68.35714149 -24.41427874 69.19437171 -23.015625 70.03125 C-20.69917969 71.41763672 -20.69917969 71.41763672 -18.3359375 72.83203125 C-12.3959375 76.29703125 -12.3959375 76.29703125 -6.3359375 79.83203125 C-6.3359375 66.63203125 -6.3359375 53.43203125 -6.3359375 39.83203125 C-15.27913968 34.7441573 -15.27913968 34.7441573 -24.22509766 29.66113281 C-25.34706543 29.02143555 -26.4690332 28.38173828 -27.625 27.72265625 C-29.33743896 26.7486084 -29.33743896 26.7486084 -31.08447266 25.75488281 C-34.27220104 23.86972372 -37.34422979 22.01368527 -40.3359375 19.83203125 C-40.3359375 19.17203125 -40.3359375 18.51203125 -40.3359375 17.83203125 C-39.27850342 17.24301025 -39.27850342 17.24301025 -38.19970703 16.64208984 C-34.9525193 14.83206858 -31.70672315 13.01956548 -28.4609375 11.20703125 C-27.35234375 10.58957031 -26.24375 9.97210938 -25.1015625 9.3359375 C-24.00585938 8.72363281 -22.91015625 8.11132812 -21.78125 7.48046875 C-20.68586914 6.88073242 -19.59048828 6.28099609 -18.46191406 5.66308594 C-15.33782063 3.9144636 -15.33782063 3.9144636 -12.67089844 1.82128906 C-7.8331184 -1.75679202 -5.50753983 -2.95612203 0 0 Z " fill="#ED8E23" transform="translate(148.3359375,125.16796875)"/>
<path d="M0 0 C3.62806134 1.45122453 6.74228784 2.87544185 10.11328125 4.765625 C11.10215332 5.31903564 12.09102539 5.87244629 13.10986328 6.44262695 C14.69516846 7.33727661 14.69516846 7.33727661 16.3125 8.25 C17.41319824 8.8689917 18.51389648 9.4879834 19.64794922 10.12573242 C27.33976866 14.4649183 34.99503593 18.86540117 42.625 23.3125 C43.61975342 23.89104736 44.61450684 24.46959473 45.6394043 25.06567383 C50.01013846 27.61919304 54.35300623 30.19808052 58.625 32.9140625 C59.31126465 33.34549561 59.9975293 33.77692871 60.70458984 34.22143555 C61.93332893 34.999512 63.15345806 35.79146439 64.36181641 36.60083008 C67.01111941 38.27476979 68.61817405 39.02657348 71.77832031 38.80664062 C75.49759243 37.87541335 78.26083286 36.40688872 81.5703125 34.47265625 C82.17382538 34.12367783 82.77733826 33.7746994 83.3991394 33.41514587 C85.31290915 32.3061838 87.21903168 31.18480708 89.125 30.0625 C91.03966119 28.9466183 92.95579951 27.83331263 94.87228394 26.7205658 C96.60756015 25.71119957 98.33927947 24.69572575 100.07080078 23.67993164 C102.35399113 22.370494 104.62893815 21.13867199 107 20 C110.48373551 56.41356273 110.48373551 56.41356273 105.03417969 65.15234375 C100.00941488 69.72564194 94.10981512 72.01301296 87.70556641 74.06494141 C84.00912034 75.34245345 81.17968222 77.20131054 77.9375 79.375 C73.68456214 82.07385681 73.68456214 82.07385681 70.70996094 81.75292969 C67.56288875 80.87855396 65.12656933 79.56980914 62.30078125 77.9296875 C60.62943115 76.96675781 60.62943115 76.96675781 58.92431641 75.984375 C57.72030897 75.28136754 56.51637189 74.57823956 55.3125 73.875 C54.06467225 73.15298543 52.8164568 72.43164054 51.56787109 71.7109375 C48.98886114 70.22085935 46.41218022 68.72687101 43.83740234 67.22949219 C40.18422849 65.10545475 36.52495729 62.99215201 32.86328125 60.8828125 C28.59713433 58.42501244 24.33273566 55.96425151 20.0703125 53.5 C13.39057973 49.64862255 6.69459595 45.8254834 0 42 C0 28.14 0 14.28 0 0 Z " fill="#E55B2D" transform="translate(143,42)"/>
<path d="M0 0 C1.90538108 1.25459124 3.79404005 2.53483509 5.66796875 3.8359375 C7.7666863 5.06815776 9.8750527 6.28407405 11.9921875 7.484375 C14.11422449 8.72495047 16.235314 9.967148 18.35546875 11.2109375 C19.45052734 11.85160156 20.54558594 12.49226562 21.67382812 13.15234375 C24.3393882 14.71210379 27.0040826 16.27332093 29.66796875 17.8359375 C28.40869776 21.61375048 27.31682571 21.8824762 23.890625 23.76171875 C22.90126953 24.31150391 21.91191406 24.86128906 20.89257812 25.42773438 C19.32733398 26.27948242 19.32733398 26.27948242 17.73046875 27.1484375 C15.69979989 28.26822486 13.66984608 29.38930993 11.640625 30.51171875 C10.64047363 31.05650879 9.64032227 31.60129883 8.60986328 32.16259766 C5.74841089 33.79018228 3.03646058 35.56773492 0.2890625 37.37890625 C-3.88612051 39.8839329 -3.88612051 39.8839329 -7.453125 39.5 C-8.40316406 38.95085937 -9.35320312 38.40171875 -10.33203125 37.8359375 C-10.93934082 37.5069043 -11.54665039 37.17787109 -12.17236328 36.83886719 C-14.27956607 35.67941871 -16.33641598 34.45530314 -18.39453125 33.2109375 C-19.13243896 32.76943359 -19.87034668 32.32792969 -20.63061523 31.87304688 C-22.13691379 30.96988501 -23.64156413 30.0639684 -25.14453125 29.15527344 C-27.20059854 27.91520785 -29.26485179 26.69017079 -31.33203125 25.46875 C-32.51994466 24.75850349 -33.70746893 24.04760556 -34.89453125 23.3359375 C-35.94769531 22.706875 -37.00085938 22.0778125 -38.0859375 21.4296875 C-38.82714844 20.90375 -39.56835938 20.3778125 -40.33203125 19.8359375 C-40.33203125 19.1759375 -40.33203125 18.5159375 -40.33203125 17.8359375 C-39.27459717 17.2469165 -39.27459717 17.2469165 -38.19580078 16.64599609 C-34.94861305 14.83597483 -31.7028169 13.02347173 -28.45703125 11.2109375 C-27.3484375 10.59347656 -26.23984375 9.97601563 -25.09765625 9.33984375 C-24.00195312 8.72753906 -22.90625 8.11523438 -21.77734375 7.484375 C-20.68196289 6.88463867 -19.58658203 6.28490234 -18.45800781 5.66699219 C-15.33391438 3.91836985 -15.33391438 3.91836985 -12.66699219 1.82519531 C-7.8323457 -1.75056816 -5.5049241 -2.95311344 0 0 Z " fill="#F7BE3B" transform="translate(148.33203125,125.1640625)"/>
<path d="M0 0 C4.08223356 1.50834102 7.73553623 3.460482 11.5078125 5.625 C12.115112 5.97256348 12.7224115 6.32012695 13.34811401 6.67822266 C14.62470957 7.40961771 15.90042241 8.14255541 17.17529297 8.87695312 C19.12406435 9.99946106 21.07544247 11.1173201 23.02734375 12.234375 C32.50651627 17.67101085 32.50651627 17.67101085 36 20 C36.36076355 21.83499146 36.36076355 21.83499146 36.34057617 24.08251953 C36.34023628 25.34360031 36.34023628 25.34360031 36.33988953 26.63015747 C36.32440567 27.53853363 36.30892181 28.44690979 36.29296875 29.3828125 C36.28872391 30.31221649 36.28447906 31.24162048 36.28010559 32.19918823 C36.26328012 35.17475056 36.22562103 38.14964156 36.1875 41.125 C36.17245816 43.13931315 36.15876888 45.15363689 36.14648438 47.16796875 C36.11336394 52.11223879 36.06155529 57.05600549 36 62 C35.28166992 61.62198242 34.56333984 61.24396484 33.82324219 60.85449219 C28.48194291 58.10542076 23.29185302 55.69762594 17.578125 53.828125 C10.49009793 51.13899828 4.29781087 48.49330504 0 42 C-3.7993368 28.87118062 -1.40254945 13.3799621 0 0 Z " fill="#E55B2C" transform="translate(0,83)"/>
<path d="M0 0 C3.48373551 36.41356273 3.48373551 36.41356273 -1.96582031 45.15234375 C-6.98501228 49.72056981 -12.88390155 52.01755477 -19.28125 54.06933594 C-23.00640596 55.34450606 -25.94565472 57.18249312 -29.25 59.3125 C-33.75302663 62 -33.75302663 62 -36 62 C-36 48.14 -36 34.28 -36 20 C-23 12.8125 -23 12.8125 -18.94921875 10.57739258 C-13.96700437 7.81591822 -9.00309166 5.05908535 -4.1875 2.01171875 C-1 0 -1 0 0 0 Z " fill="#ED8E24" transform="translate(250,62)"/>
</svg>
